<mxfile host="app.diagrams.net" agent="Mozilla/5.0 (Windows NT 10.0; Win64; x64) AppleWebKit/537.36 (KHTML, like Gecko) Chrome/131.0.0.0 Safari/537.36" version="25.0.1" pages="2">
  <diagram name="Page-1" id="pDGeJCEjxCH2YnQQcYUn">
    <mxGraphModel dx="5035" dy="1930" grid="1" gridSize="10" guides="1" tooltips="1" connect="1" arrows="1" fold="1" page="1" pageScale="1" pageWidth="850" pageHeight="1100" math="0" shadow="0">
      <root>
        <mxCell id="0" />
        <mxCell id="1" parent="0" />
        <mxCell id="UsypLISzVPM1GwDdfIIj-1" style="edgeStyle=orthogonalEdgeStyle;rounded=0;orthogonalLoop=1;jettySize=auto;html=1;exitX=0.5;exitY=1;exitDx=0;exitDy=0;" parent="1" edge="1">
          <mxGeometry relative="1" as="geometry">
            <mxPoint x="392.5" y="120" as="sourcePoint" />
            <mxPoint x="392.5" y="120" as="targetPoint" />
          </mxGeometry>
        </mxCell>
        <mxCell id="UsypLISzVPM1GwDdfIIj-13" value="" style="edgeStyle=orthogonalEdgeStyle;rounded=0;orthogonalLoop=1;jettySize=auto;html=1;" parent="1" source="UsypLISzVPM1GwDdfIIj-11" target="UsypLISzVPM1GwDdfIIj-12" edge="1">
          <mxGeometry relative="1" as="geometry" />
        </mxCell>
        <mxCell id="UsypLISzVPM1GwDdfIIj-11" value="&lt;h1&gt;START&lt;/h1&gt;" style="rounded=0;whiteSpace=wrap;html=1;" parent="1" vertex="1">
          <mxGeometry x="340" y="60" width="120" height="60" as="geometry" />
        </mxCell>
        <mxCell id="UsypLISzVPM1GwDdfIIj-16" value="" style="edgeStyle=orthogonalEdgeStyle;rounded=0;orthogonalLoop=1;jettySize=auto;html=1;" parent="1" source="UsypLISzVPM1GwDdfIIj-12" target="UsypLISzVPM1GwDdfIIj-14" edge="1">
          <mxGeometry relative="1" as="geometry" />
        </mxCell>
        <mxCell id="UsypLISzVPM1GwDdfIIj-12" value="Prompt&lt;div&gt;&quot;enter password&quot;&lt;/div&gt;" style="rounded=0;whiteSpace=wrap;html=1;" parent="1" vertex="1">
          <mxGeometry x="340" y="160" width="120" height="60" as="geometry" />
        </mxCell>
        <mxCell id="UsypLISzVPM1GwDdfIIj-18" value="" style="edgeStyle=orthogonalEdgeStyle;rounded=0;orthogonalLoop=1;jettySize=auto;html=1;" parent="1" source="UsypLISzVPM1GwDdfIIj-14" target="UsypLISzVPM1GwDdfIIj-17" edge="1">
          <mxGeometry relative="1" as="geometry" />
        </mxCell>
        <mxCell id="UsypLISzVPM1GwDdfIIj-14" value="input password" style="shape=parallelogram;perimeter=parallelogramPerimeter;whiteSpace=wrap;html=1;fixedSize=1;" parent="1" vertex="1">
          <mxGeometry x="340" y="240" width="120" height="60" as="geometry" />
        </mxCell>
        <mxCell id="UsypLISzVPM1GwDdfIIj-20" value="" style="edgeStyle=orthogonalEdgeStyle;rounded=0;orthogonalLoop=1;jettySize=auto;html=1;" parent="1" source="UsypLISzVPM1GwDdfIIj-17" target="UsypLISzVPM1GwDdfIIj-19" edge="1">
          <mxGeometry relative="1" as="geometry" />
        </mxCell>
        <mxCell id="UsypLISzVPM1GwDdfIIj-22" value="" style="edgeStyle=orthogonalEdgeStyle;rounded=0;orthogonalLoop=1;jettySize=auto;html=1;" parent="1" source="UsypLISzVPM1GwDdfIIj-17" target="UsypLISzVPM1GwDdfIIj-21" edge="1">
          <mxGeometry relative="1" as="geometry" />
        </mxCell>
        <mxCell id="UsypLISzVPM1GwDdfIIj-17" value="Is password correct?" style="rhombus;whiteSpace=wrap;html=1;" parent="1" vertex="1">
          <mxGeometry x="345" y="421.25" width="110" height="110" as="geometry" />
        </mxCell>
        <mxCell id="UsypLISzVPM1GwDdfIIj-29" value="" style="edgeStyle=orthogonalEdgeStyle;rounded=0;orthogonalLoop=1;jettySize=auto;html=1;" parent="1" source="UsypLISzVPM1GwDdfIIj-19" target="UsypLISzVPM1GwDdfIIj-32" edge="1">
          <mxGeometry relative="1" as="geometry">
            <mxPoint x="625" y="540" as="targetPoint" />
          </mxGeometry>
        </mxCell>
        <mxCell id="UsypLISzVPM1GwDdfIIj-19" value="yes" style="ellipse;whiteSpace=wrap;html=1;" parent="1" vertex="1">
          <mxGeometry x="565" y="443.75" width="70" height="65" as="geometry" />
        </mxCell>
        <mxCell id="aBlB7A46nnsKBFN_45VR-7" style="edgeStyle=orthogonalEdgeStyle;rounded=0;orthogonalLoop=1;jettySize=auto;html=1;entryX=0.5;entryY=1;entryDx=0;entryDy=0;" parent="1" source="UsypLISzVPM1GwDdfIIj-21" target="aBlB7A46nnsKBFN_45VR-4" edge="1">
          <mxGeometry relative="1" as="geometry" />
        </mxCell>
        <mxCell id="UsypLISzVPM1GwDdfIIj-21" value="no" style="ellipse;whiteSpace=wrap;html=1;" parent="1" vertex="1">
          <mxGeometry x="120" y="443.75" width="70" height="67.5" as="geometry" />
        </mxCell>
        <mxCell id="Lpol4z8Rp1wV4d2fF0aI-2" style="edgeStyle=orthogonalEdgeStyle;rounded=0;orthogonalLoop=1;jettySize=auto;html=1;entryX=0.5;entryY=0;entryDx=0;entryDy=0;" parent="1" source="UsypLISzVPM1GwDdfIIj-32" target="Lpol4z8Rp1wV4d2fF0aI-1" edge="1">
          <mxGeometry relative="1" as="geometry">
            <mxPoint x="1200" y="710" as="targetPoint" />
            <Array as="points">
              <mxPoint x="1080" y="665" />
            </Array>
          </mxGeometry>
        </mxCell>
        <mxCell id="Lpol4z8Rp1wV4d2fF0aI-3" style="edgeStyle=orthogonalEdgeStyle;rounded=0;orthogonalLoop=1;jettySize=auto;html=1;exitX=0;exitY=1;exitDx=0;exitDy=0;entryX=0.5;entryY=0;entryDx=0;entryDy=0;" parent="1" source="UsypLISzVPM1GwDdfIIj-32" target="UsypLISzVPM1GwDdfIIj-34" edge="1">
          <mxGeometry relative="1" as="geometry" />
        </mxCell>
        <mxCell id="Lpol4z8Rp1wV4d2fF0aI-13" value="" style="edgeStyle=orthogonalEdgeStyle;rounded=0;orthogonalLoop=1;jettySize=auto;html=1;" parent="1" source="UsypLISzVPM1GwDdfIIj-32" target="UsypLISzVPM1GwDdfIIj-42" edge="1">
          <mxGeometry relative="1" as="geometry" />
        </mxCell>
        <mxCell id="UsypLISzVPM1GwDdfIIj-32" value="&amp;nbsp;Choose&lt;div&gt;[a] [b] [c]&lt;/div&gt;&lt;div&gt;[ * ]&amp;nbsp;&lt;/div&gt;&lt;div&gt;?&lt;/div&gt;" style="rhombus;whiteSpace=wrap;html=1;" parent="1" vertex="1">
          <mxGeometry x="540" y="600" width="125" height="130" as="geometry" />
        </mxCell>
        <mxCell id="UsypLISzVPM1GwDdfIIj-41" value="" style="edgeStyle=orthogonalEdgeStyle;rounded=0;orthogonalLoop=1;jettySize=auto;html=1;" parent="1" source="UsypLISzVPM1GwDdfIIj-34" target="UsypLISzVPM1GwDdfIIj-40" edge="1">
          <mxGeometry relative="1" as="geometry" />
        </mxCell>
        <mxCell id="UsypLISzVPM1GwDdfIIj-34" value="[A] or [a]" style="shape=parallelogram;perimeter=parallelogramPerimeter;whiteSpace=wrap;html=1;fixedSize=1;" parent="1" vertex="1">
          <mxGeometry x="210" y="750" width="120" height="60" as="geometry" />
        </mxCell>
        <mxCell id="UsypLISzVPM1GwDdfIIj-43" value="" style="edgeStyle=orthogonalEdgeStyle;rounded=0;orthogonalLoop=1;jettySize=auto;html=1;" parent="1" source="UsypLISzVPM1GwDdfIIj-36" target="UsypLISzVPM1GwDdfIIj-42" edge="1">
          <mxGeometry relative="1" as="geometry" />
        </mxCell>
        <mxCell id="UsypLISzVPM1GwDdfIIj-36" value="[B] or [b]" style="shape=parallelogram;perimeter=parallelogramPerimeter;whiteSpace=wrap;html=1;fixedSize=1;" parent="1" vertex="1">
          <mxGeometry x="542.5" y="750" width="120" height="60" as="geometry" />
        </mxCell>
        <mxCell id="UsypLISzVPM1GwDdfIIj-45" value="" style="edgeStyle=orthogonalEdgeStyle;rounded=0;orthogonalLoop=1;jettySize=auto;html=1;" parent="1" source="UsypLISzVPM1GwDdfIIj-38" target="UsypLISzVPM1GwDdfIIj-44" edge="1">
          <mxGeometry relative="1" as="geometry" />
        </mxCell>
        <mxCell id="UsypLISzVPM1GwDdfIIj-38" value="[C] or [c]" style="shape=parallelogram;perimeter=parallelogramPerimeter;whiteSpace=wrap;html=1;fixedSize=1;" parent="1" vertex="1">
          <mxGeometry x="830" y="750" width="120" height="60" as="geometry" />
        </mxCell>
        <mxCell id="UsypLISzVPM1GwDdfIIj-39" style="edgeStyle=orthogonalEdgeStyle;rounded=0;orthogonalLoop=1;jettySize=auto;html=1;entryX=0.5;entryY=0;entryDx=0;entryDy=0;" parent="1" source="UsypLISzVPM1GwDdfIIj-32" target="UsypLISzVPM1GwDdfIIj-38" edge="1">
          <mxGeometry relative="1" as="geometry">
            <Array as="points">
              <mxPoint x="890" y="700" />
            </Array>
          </mxGeometry>
        </mxCell>
        <mxCell id="UsypLISzVPM1GwDdfIIj-47" value="" style="edgeStyle=orthogonalEdgeStyle;rounded=0;orthogonalLoop=1;jettySize=auto;html=1;" parent="1" source="Lpol4z8Rp1wV4d2fF0aI-11" target="UsypLISzVPM1GwDdfIIj-46" edge="1">
          <mxGeometry relative="1" as="geometry" />
        </mxCell>
        <mxCell id="UsypLISzVPM1GwDdfIIj-40" value="Task :1" style="whiteSpace=wrap;html=1;" parent="1" vertex="1">
          <mxGeometry x="210" y="840" width="120" height="30" as="geometry" />
        </mxCell>
        <mxCell id="UsypLISzVPM1GwDdfIIj-42" value="Task: 2" style="whiteSpace=wrap;html=1;" parent="1" vertex="1">
          <mxGeometry x="540" y="840" width="120" height="30" as="geometry" />
        </mxCell>
        <mxCell id="UsypLISzVPM1GwDdfIIj-44" value="Task: 3" style="whiteSpace=wrap;html=1;" parent="1" vertex="1">
          <mxGeometry x="830" y="840" width="120" height="30" as="geometry" />
        </mxCell>
        <mxCell id="UsypLISzVPM1GwDdfIIj-49" value="" style="edgeStyle=orthogonalEdgeStyle;rounded=0;orthogonalLoop=1;jettySize=auto;html=1;entryX=0.5;entryY=0;entryDx=0;entryDy=0;" parent="1" source="UsypLISzVPM1GwDdfIIj-46" target="Lpol4z8Rp1wV4d2fF0aI-15" edge="1">
          <mxGeometry relative="1" as="geometry">
            <mxPoint x="266.95000000000005" y="1087.9699999999998" as="targetPoint" />
          </mxGeometry>
        </mxCell>
        <mxCell id="UsypLISzVPM1GwDdfIIj-46" value="input 2 numbers&lt;div&gt;EX:1 &amp;amp; 40&lt;/div&gt;" style="shape=parallelogram;perimeter=parallelogramPerimeter;whiteSpace=wrap;html=1;fixedSize=1;" parent="1" vertex="1">
          <mxGeometry x="210" y="990" width="120" height="60" as="geometry" />
        </mxCell>
        <mxCell id="UsypLISzVPM1GwDdfIIj-53" value="" style="edgeStyle=orthogonalEdgeStyle;rounded=0;orthogonalLoop=1;jettySize=auto;html=1;exitX=0.399;exitY=1.006;exitDx=0;exitDy=0;exitPerimeter=0;" parent="1" source="Lpol4z8Rp1wV4d2fF0aI-15" target="UsypLISzVPM1GwDdfIIj-51" edge="1">
          <mxGeometry relative="1" as="geometry">
            <mxPoint x="260" y="1160" as="sourcePoint" />
            <Array as="points">
              <mxPoint x="260" y="1150" />
              <mxPoint x="260" y="1180" />
              <mxPoint x="170" y="1180" />
            </Array>
          </mxGeometry>
        </mxCell>
        <mxCell id="UsypLISzVPM1GwDdfIIj-60" value="" style="edgeStyle=orthogonalEdgeStyle;rounded=0;orthogonalLoop=1;jettySize=auto;html=1;" parent="1" source="UsypLISzVPM1GwDdfIIj-51" target="UsypLISzVPM1GwDdfIIj-59" edge="1">
          <mxGeometry relative="1" as="geometry" />
        </mxCell>
        <mxCell id="UsypLISzVPM1GwDdfIIj-51" value="counts the amount of numbers that are odd" style="whiteSpace=wrap;html=1;" parent="1" vertex="1">
          <mxGeometry x="100" y="1210" width="140" height="70" as="geometry" />
        </mxCell>
        <mxCell id="UsypLISzVPM1GwDdfIIj-58" value="" style="edgeStyle=orthogonalEdgeStyle;rounded=0;orthogonalLoop=1;jettySize=auto;html=1;" parent="1" source="UsypLISzVPM1GwDdfIIj-54" target="UsypLISzVPM1GwDdfIIj-57" edge="1">
          <mxGeometry relative="1" as="geometry" />
        </mxCell>
        <mxCell id="UsypLISzVPM1GwDdfIIj-54" value="counts the amount of numbers that are even" style="whiteSpace=wrap;html=1;" parent="1" vertex="1">
          <mxGeometry x="300" y="1205" width="140" height="80" as="geometry" />
        </mxCell>
        <mxCell id="UsypLISzVPM1GwDdfIIj-55" style="edgeStyle=orthogonalEdgeStyle;rounded=0;orthogonalLoop=1;jettySize=auto;html=1;entryX=0.567;entryY=0.067;entryDx=0;entryDy=0;entryPerimeter=0;exitX=0.579;exitY=1.006;exitDx=0;exitDy=0;exitPerimeter=0;" parent="1" source="Lpol4z8Rp1wV4d2fF0aI-15" target="UsypLISzVPM1GwDdfIIj-54" edge="1">
          <mxGeometry relative="1" as="geometry">
            <Array as="points">
              <mxPoint x="280" y="1180" />
              <mxPoint x="379" y="1180" />
            </Array>
            <mxPoint x="280" y="1160" as="sourcePoint" />
          </mxGeometry>
        </mxCell>
        <mxCell id="UsypLISzVPM1GwDdfIIj-68" style="edgeStyle=orthogonalEdgeStyle;rounded=0;orthogonalLoop=1;jettySize=auto;html=1;" parent="1" source="UsypLISzVPM1GwDdfIIj-57" edge="1">
          <mxGeometry relative="1" as="geometry">
            <mxPoint x="270" y="1410" as="targetPoint" />
            <Array as="points">
              <mxPoint x="370" y="1400" />
              <mxPoint x="270" y="1400" />
            </Array>
          </mxGeometry>
        </mxCell>
        <mxCell id="UsypLISzVPM1GwDdfIIj-57" value="adds the even numbers together&amp;nbsp;" style="whiteSpace=wrap;html=1;" parent="1" vertex="1">
          <mxGeometry x="310" y="1320" width="120" height="60" as="geometry" />
        </mxCell>
        <mxCell id="UsypLISzVPM1GwDdfIIj-65" style="edgeStyle=orthogonalEdgeStyle;rounded=0;orthogonalLoop=1;jettySize=auto;html=1;entryX=0.5;entryY=0;entryDx=0;entryDy=0;" parent="1" source="UsypLISzVPM1GwDdfIIj-59" target="UsypLISzVPM1GwDdfIIj-61" edge="1">
          <mxGeometry relative="1" as="geometry">
            <mxPoint x="170" y="1590" as="targetPoint" />
            <Array as="points">
              <mxPoint x="170" y="1400" />
              <mxPoint x="270" y="1400" />
              <mxPoint x="270" y="1470" />
              <mxPoint x="583" y="1470" />
            </Array>
          </mxGeometry>
        </mxCell>
        <mxCell id="UsypLISzVPM1GwDdfIIj-59" value="adds the odd numbers together&amp;nbsp;" style="whiteSpace=wrap;html=1;" parent="1" vertex="1">
          <mxGeometry x="110" y="1310" width="120" height="60" as="geometry" />
        </mxCell>
        <mxCell id="UsypLISzVPM1GwDdfIIj-70" value="" style="edgeStyle=orthogonalEdgeStyle;rounded=0;orthogonalLoop=1;jettySize=auto;html=1;" parent="1" source="UsypLISzVPM1GwDdfIIj-71" target="UsypLISzVPM1GwDdfIIj-69" edge="1">
          <mxGeometry relative="1" as="geometry" />
        </mxCell>
        <mxCell id="UsypLISzVPM1GwDdfIIj-76" value="" style="edgeStyle=orthogonalEdgeStyle;rounded=0;orthogonalLoop=1;jettySize=auto;html=1;" parent="1" source="UsypLISzVPM1GwDdfIIj-61" target="UsypLISzVPM1GwDdfIIj-75" edge="1">
          <mxGeometry relative="1" as="geometry" />
        </mxCell>
        <mxCell id="UsypLISzVPM1GwDdfIIj-61" value="continue to another task or&amp;nbsp;&lt;div&gt;exit?&lt;/div&gt;" style="rhombus;whiteSpace=wrap;html=1;" parent="1" vertex="1">
          <mxGeometry x="490" y="1500" width="185" height="150" as="geometry" />
        </mxCell>
        <mxCell id="UsypLISzVPM1GwDdfIIj-69" value="&lt;h1&gt;STOP&lt;/h1&gt;" style="rounded=0;whiteSpace=wrap;html=1;" parent="1" vertex="1">
          <mxGeometry x="478.75" y="1800" width="207.5" height="100" as="geometry" />
        </mxCell>
        <mxCell id="UsypLISzVPM1GwDdfIIj-72" value="" style="edgeStyle=orthogonalEdgeStyle;rounded=0;orthogonalLoop=1;jettySize=auto;html=1;" parent="1" source="UsypLISzVPM1GwDdfIIj-61" target="UsypLISzVPM1GwDdfIIj-71" edge="1">
          <mxGeometry relative="1" as="geometry">
            <mxPoint x="582" y="1650" as="sourcePoint" />
            <mxPoint x="583" y="1800" as="targetPoint" />
          </mxGeometry>
        </mxCell>
        <mxCell id="UsypLISzVPM1GwDdfIIj-71" value="exit" style="rounded=0;whiteSpace=wrap;html=1;" parent="1" vertex="1">
          <mxGeometry x="522.5" y="1690" width="120" height="60" as="geometry" />
        </mxCell>
        <mxCell id="UsypLISzVPM1GwDdfIIj-78" value="" style="edgeStyle=orthogonalEdgeStyle;rounded=0;orthogonalLoop=1;jettySize=auto;html=1;" parent="1" source="UsypLISzVPM1GwDdfIIj-75" target="UsypLISzVPM1GwDdfIIj-77" edge="1">
          <mxGeometry relative="1" as="geometry" />
        </mxCell>
        <mxCell id="UsypLISzVPM1GwDdfIIj-75" value="Continue" style="rounded=0;whiteSpace=wrap;html=1;" parent="1" vertex="1">
          <mxGeometry x="310" y="1545" width="120" height="60" as="geometry" />
        </mxCell>
        <mxCell id="UsypLISzVPM1GwDdfIIj-77" value="" style="shape=waypoint;sketch=0;size=6;pointerEvents=1;points=[];fillColor=default;resizable=0;rotatable=0;perimeter=centerPerimeter;snapToPoint=1;rounded=0;" parent="1" vertex="1">
          <mxGeometry x="60" y="1565" width="20" height="20" as="geometry" />
        </mxCell>
        <mxCell id="UsypLISzVPM1GwDdfIIj-84" value="" style="edgeStyle=orthogonalEdgeStyle;rounded=0;orthogonalLoop=1;jettySize=auto;html=1;entryX=0;entryY=0.5;entryDx=0;entryDy=0;" parent="1" source="UsypLISzVPM1GwDdfIIj-77" target="UsypLISzVPM1GwDdfIIj-32" edge="1">
          <mxGeometry relative="1" as="geometry">
            <mxPoint x="70" y="660" as="targetPoint" />
            <mxPoint x="50" y="1575" as="sourcePoint" />
            <Array as="points">
              <mxPoint x="70" y="665" />
            </Array>
          </mxGeometry>
        </mxCell>
        <mxCell id="UsypLISzVPM1GwDdfIIj-85" value="Prints&amp;nbsp;&lt;div&gt;- triangular numbers&amp;nbsp;&lt;div&gt;- count of odd and even numbers&lt;/div&gt;&lt;/div&gt;&lt;div&gt;- product of odd and even numbers&lt;/div&gt;" style="shape=parallelogram;perimeter=parallelogramPerimeter;whiteSpace=wrap;html=1;fixedSize=1;" parent="1" vertex="1">
          <mxGeometry x="270" y="1420" width="230" height="90" as="geometry" />
        </mxCell>
        <mxCell id="aBlB7A46nnsKBFN_45VR-1" value="password attempt ++" style="rounded=0;whiteSpace=wrap;html=1;" parent="1" vertex="1">
          <mxGeometry x="340" y="330" width="120" height="60" as="geometry" />
        </mxCell>
        <mxCell id="aBlB7A46nnsKBFN_45VR-9" value="" style="edgeStyle=orthogonalEdgeStyle;rounded=0;orthogonalLoop=1;jettySize=auto;html=1;" parent="1" source="aBlB7A46nnsKBFN_45VR-4" target="aBlB7A46nnsKBFN_45VR-6" edge="1">
          <mxGeometry relative="1" as="geometry" />
        </mxCell>
        <mxCell id="aBlB7A46nnsKBFN_45VR-11" style="edgeStyle=orthogonalEdgeStyle;rounded=0;orthogonalLoop=1;jettySize=auto;html=1;exitX=0;exitY=0.5;exitDx=0;exitDy=0;entryX=0;entryY=0.5;entryDx=0;entryDy=0;" parent="1" source="Lpol4z8Rp1wV4d2fF0aI-6" target="UsypLISzVPM1GwDdfIIj-69" edge="1">
          <mxGeometry relative="1" as="geometry">
            <mxPoint y="1860" as="targetPoint" />
            <Array as="points">
              <mxPoint y="270" />
              <mxPoint y="1850" />
            </Array>
          </mxGeometry>
        </mxCell>
        <mxCell id="Lpol4z8Rp1wV4d2fF0aI-8" value="" style="edgeStyle=orthogonalEdgeStyle;rounded=0;orthogonalLoop=1;jettySize=auto;html=1;" parent="1" source="aBlB7A46nnsKBFN_45VR-4" target="Lpol4z8Rp1wV4d2fF0aI-6" edge="1">
          <mxGeometry relative="1" as="geometry" />
        </mxCell>
        <mxCell id="aBlB7A46nnsKBFN_45VR-4" value="is attempt = 3?" style="rhombus;whiteSpace=wrap;html=1;" parent="1" vertex="1">
          <mxGeometry x="107.5" y="225" width="95" height="90" as="geometry" />
        </mxCell>
        <mxCell id="aBlB7A46nnsKBFN_45VR-10" value="" style="edgeStyle=orthogonalEdgeStyle;rounded=0;orthogonalLoop=1;jettySize=auto;html=1;" parent="1" source="aBlB7A46nnsKBFN_45VR-6" target="UsypLISzVPM1GwDdfIIj-14" edge="1">
          <mxGeometry relative="1" as="geometry" />
        </mxCell>
        <mxCell id="aBlB7A46nnsKBFN_45VR-6" value="no&lt;div&gt;attempt &amp;lt; 3&lt;/div&gt;" style="rounded=0;whiteSpace=wrap;html=1;" parent="1" vertex="1">
          <mxGeometry x="235" y="250" width="70" height="40" as="geometry" />
        </mxCell>
        <mxCell id="Lpol4z8Rp1wV4d2fF0aI-4" style="edgeStyle=orthogonalEdgeStyle;rounded=0;orthogonalLoop=1;jettySize=auto;html=1;entryX=1;entryY=0;entryDx=0;entryDy=0;exitX=1;exitY=0.5;exitDx=0;exitDy=0;" parent="1" source="Lpol4z8Rp1wV4d2fF0aI-9" target="UsypLISzVPM1GwDdfIIj-32" edge="1">
          <mxGeometry relative="1" as="geometry">
            <mxPoint x="1280" y="610" as="targetPoint" />
            <mxPoint x="1170" y="880" as="sourcePoint" />
            <Array as="points">
              <mxPoint x="1190" y="880" />
              <mxPoint x="1190" y="633" />
            </Array>
          </mxGeometry>
        </mxCell>
        <mxCell id="Lpol4z8Rp1wV4d2fF0aI-10" value="" style="edgeStyle=orthogonalEdgeStyle;rounded=0;orthogonalLoop=1;jettySize=auto;html=1;" parent="1" source="Lpol4z8Rp1wV4d2fF0aI-1" target="Lpol4z8Rp1wV4d2fF0aI-9" edge="1">
          <mxGeometry relative="1" as="geometry" />
        </mxCell>
        <mxCell id="Lpol4z8Rp1wV4d2fF0aI-1" value="[ * ]" style="shape=parallelogram;perimeter=parallelogramPerimeter;whiteSpace=wrap;html=1;fixedSize=1;" parent="1" vertex="1">
          <mxGeometry x="1020" y="750" width="120" height="60" as="geometry" />
        </mxCell>
        <mxCell id="Lpol4z8Rp1wV4d2fF0aI-5" value="Prompt Menu: [a] [b][c]" style="rounded=0;whiteSpace=wrap;html=1;" parent="1" vertex="1">
          <mxGeometry x="540" y="520" width="120" height="60" as="geometry" />
        </mxCell>
        <mxCell id="Lpol4z8Rp1wV4d2fF0aI-6" value="yes&lt;div&gt;attempt = 3&lt;/div&gt;" style="rounded=0;whiteSpace=wrap;html=1;" parent="1" vertex="1">
          <mxGeometry x="20" y="255" width="70" height="30" as="geometry" />
        </mxCell>
        <mxCell id="Lpol4z8Rp1wV4d2fF0aI-9" value="Prompt:&lt;br&gt;&lt;div&gt;warning&lt;br&gt;&lt;div&gt;invalid choice,&lt;/div&gt;&lt;div&gt;choose again&lt;/div&gt;&lt;/div&gt;" style="rounded=0;whiteSpace=wrap;html=1;" parent="1" vertex="1">
          <mxGeometry x="1020" y="850" width="120" height="70" as="geometry" />
        </mxCell>
        <mxCell id="Lpol4z8Rp1wV4d2fF0aI-14" value="" style="edgeStyle=orthogonalEdgeStyle;rounded=0;orthogonalLoop=1;jettySize=auto;html=1;" parent="1" source="UsypLISzVPM1GwDdfIIj-40" target="Lpol4z8Rp1wV4d2fF0aI-11" edge="1">
          <mxGeometry relative="1" as="geometry">
            <mxPoint x="270" y="870" as="sourcePoint" />
            <mxPoint x="270" y="1000" as="targetPoint" />
          </mxGeometry>
        </mxCell>
        <mxCell id="Lpol4z8Rp1wV4d2fF0aI-11" value="Prompt&amp;nbsp;&lt;div&gt;&quot;Input 2 numbers to find triangular numbers&quot;&lt;/div&gt;" style="rounded=0;whiteSpace=wrap;html=1;" parent="1" vertex="1">
          <mxGeometry x="210" y="900" width="120" height="60" as="geometry" />
        </mxCell>
        <mxCell id="Lpol4z8Rp1wV4d2fF0aI-15" value="find triangular numbers in range of the input&amp;nbsp; numbers" style="rounded=0;whiteSpace=wrap;html=1;" parent="1" vertex="1">
          <mxGeometry x="210" y="1080" width="120" height="70" as="geometry" />
        </mxCell>
      </root>
    </mxGraphModel>
  </diagram>
  <diagram id="S7zSaSbKdAM8ZnB8rL30" name="Page-2">
    <mxGraphModel dx="792" dy="1131" grid="1" gridSize="10" guides="1" tooltips="1" connect="1" arrows="1" fold="1" page="1" pageScale="1" pageWidth="850" pageHeight="1100" math="0" shadow="0">
      <root>
        <mxCell id="0" />
        <mxCell id="1" parent="0" />
      </root>
    </mxGraphModel>
  </diagram>
</mxfile>
